<svg width="29" height="31" viewBox="0 0 29 31" fill="none" xmlns="http://www.w3.org/2000/svg">
<path id="close_1_" d="M17.4859 15.5001L27.3794 4.87381C28.2068 3.98507 28.2068 2.55536 27.3794 1.66662C26.5519 0.777878 25.2208 0.777878 24.3933 1.66662L14.4999 12.2929L4.60652 1.66662C3.77907 0.777878 2.44798 0.777878 1.62053 1.66662C0.793079 2.55536 0.793079 3.98507 1.62053 4.87381L11.5139 15.5001L1.62053 26.1263C0.793079 27.0151 0.793079 28.4448 1.62053 29.3335C2.03425 29.7779 2.5739 30.0001 3.11354 30.0001C3.65318 30.0001 4.19279 29.7779 4.60652 29.3335L14.4999 18.7073L24.3933 29.3335C24.8071 29.7779 25.3467 30.0001 25.8863 30.0001C26.426 30.0001 26.9656 29.7779 27.3794 29.3335C28.2068 28.4448 28.2068 27.0151 27.3794 26.1263L17.4859 15.5001Z" stroke="black" stroke-width="2" stroke-miterlimit="10"/>
</svg>
