<svg width="84" height="64" viewBox="0 0 84 64" fill="none" xmlns="http://www.w3.org/2000/svg">
<g id="Frame" clip-path="url(#clip0_151_544)">
<g id="cart_1_">
<path id="Vector" d="M70.6469 45.8281H23.3308C21.3471 45.8281 19.6015 44.5706 18.9668 42.7106L9.10155 13.3435C8.67837 12.086 9.63052 10.7761 10.9794 10.7761H75.0902" stroke="#D1D3D4" stroke-width="1.7647" stroke-miterlimit="10" stroke-linecap="round"/>
<path id="Vector_2" d="M88.3408 2H78.7664C77.4969 2 76.3861 2.91691 76.1745 4.17438L70.9377 35.4278C70.779 36.3709 69.9591 37.052 69.007 37.052H17.0889" stroke="#D1D3D4" stroke-width="1.7647" stroke-miterlimit="10" stroke-linecap="round"/>
<path id="Vector_3" d="M11.1909 19.526H73.609" stroke="#D1D3D4" stroke-width="1.7647" stroke-miterlimit="10"/>
<path id="Vector_4" d="M14.1267 28.3021H72.128" stroke="#D1D3D4" stroke-width="1.7647" stroke-miterlimit="10"/>
<path id="Vector_5" d="M32.6934 63.6947C36.3451 63.6947 39.3055 60.7624 39.3055 57.1453C39.3055 53.5282 36.3451 50.596 32.6934 50.596C29.0416 50.596 26.0813 53.5282 26.0813 57.1453C26.0813 60.7624 29.0416 63.6947 32.6934 63.6947Z" fill="#D1D3D4"/>
<path id="Vector_6" d="M59.2212 63.6947C62.873 63.6947 65.8333 60.7624 65.8333 57.1453C65.8333 53.5282 62.873 50.596 59.2212 50.596C55.5695 50.596 52.6091 53.5282 52.6091 57.1453C52.6091 60.7624 55.5695 63.6947 59.2212 63.6947Z" fill="#D1D3D4"/>
</g>
</g>
<defs>
<clipPath id="clip0_151_544">
<rect width="84" height="64" fill="white"/>
</clipPath>
</defs>
</svg>
